<svg xmlns="http://www.w3.org/2000/svg" viewBox="0 0 576 512">
  <defs>
    <linearGradient id="gradient" x1="0%" y1="0%" x2="100%" y2="100%">
      <stop offset="0%" style="stop-color:#cba6f7;stop-opacity:1" />
      <stop offset="100%" style="stop-color:#f5c2e7;stop-opacity:1" />
    </linearGradient>
  </defs>
  <path fill="url(#gradient)" d="M9.4 86.6C-3.1 74.1-3.1 53.9 9.4 41.4s32.8-12.5 45.3 0l192 192c12.5 12.5 12.5 32.8 0 45.3l-192 192c-12.5 12.5-32.8 12.5-45.3 0s-12.5-32.8 0-45.3L178.7 256 9.4 86.6zM256 416l288 0c17.7 0 32 14.3 32 32s-14.3 32-32 32l-288 0c-17.7 0-32-14.3-32-32s14.3-32 32-32z"/>
</svg>
